<svg xmlns="http://www.w3.org/2000/svg" width="400" height="400" viewBox="0 0 400 400"><g transform="translate(96.03842926022702,159.19138276553127)translate(104.25,31.275000000000038)rotate(0)translate(-104.25,-31.275000000000038) scale(0.41721444822638837,0.41721444822638837)" opacity="1"><defs class="defs"/><path fill="#002649" d="M262.725,119.023c115.682,0,209.254-24.421,209.254-54.498c0-12.083-15.424-23.394-41.131-32.392&#10;&#9;c17.738,7.97,27.764,16.71,27.764,25.45c0,11.567-17.738,22.107-47.301,30.334c18.51-7.197,29.307-15.168,29.307-22.879&#10;&#9;c0-21.594-82.264-39.074-183.805-39.074c-101.542,0-183.804,17.479-183.804,39.074c0,11.824,24.421,24.164,63.239,32.904&#10;&#9;c-32.905-4.885-59.383-11.824-76.35-20.052C82.776,101.543,165.039,119.023,262.725,119.023z" class="color c1"/><path fill="#002649" d="M499.743,88.176c-42.93,21.852-129.82,36.761-229.82,36.761c-142.673,0-258.354-30.334-258.354-67.866&#10;&#9;c0-8.482,5.913-16.709,16.966-24.164C10.283,42.16,0,52.701,0,64.011c0,37.532,115.681,67.866,258.354,67.866&#10;&#9;C368.379,131.877,462.725,113.883,499.743,88.176z" class="color c1"/><path fill="#002649" d="M51.67,121.852c54.242,17.225,126.221,27.764,204.885,27.764c78.92,0,150.643-10.539,204.885-27.764&#10;&#9;c-54.242,11.311-126.223,18.252-204.885,18.252C177.892,140.104,106.169,133.162,51.67,121.852z" class="color c1"/><path fill="#002649" d="M485.604,62.469c0,4.884-2.314,9.77-6.686,14.139c-0.514,0.514-0.77,1.285-1.285,1.801&#10;&#9;c10.025-6.686,15.684-13.883,15.684-21.596C493.317,25.451,400,0,285.088,0c-12.34,0-24.422,0.258-36.246,0.771&#10;&#9;c43.443,0.771,83.804,4.371,118.251,10.283C437.276,20.309,485.604,39.847,485.604,62.469z" class="color c1"/></g><g transform="translate(135.00843811032468,238)translate(65.27999114990234,31)rotate(0)translate(-65.27999114990234,-31)" opacity="1"><path transform="translate(6,50.064)rotate(0)" d="M26.78-30.53L23.86-25.15L23.86-25.15Q23.52-25.49 22.63-26.06L22.63-26.06L22.63-26.06Q21.74-26.64 20.47-27.19L20.47-27.19L20.47-27.19Q19.20-27.74 17.71-28.13L17.71-28.13L17.71-28.13Q16.22-28.51 14.69-28.51L14.69-28.51L14.69-28.51Q11.95-28.51 10.61-27.50L10.61-27.50L10.61-27.50Q9.26-26.50 9.26-24.67L9.26-24.67L9.26-24.67Q9.26-23.62 9.77-22.92L9.77-22.92L9.77-22.92Q10.27-22.22 11.23-21.70L11.23-21.70L11.23-21.70Q12.19-21.17 13.66-20.74L13.66-20.74L13.66-20.74Q15.12-20.30 17.04-19.82L17.04-19.82L17.04-19.82Q19.54-19.15 21.58-18.38L21.58-18.38L21.58-18.38Q23.62-17.62 25.03-16.46L25.03-16.46L25.03-16.46Q26.45-15.31 27.22-13.70L27.22-13.70L27.22-13.70Q27.98-12.10 27.98-9.74L27.98-9.74L27.98-9.74Q27.98-7.01 26.95-5.06L26.95-5.06L26.95-5.06Q25.92-3.12 24.17-1.92L24.17-1.92L24.17-1.92Q22.42-0.72 20.14-0.17L20.14-0.17L20.14-0.17Q17.86 0.38 15.36 0.38L15.36 0.38L15.36 0.38Q11.52 0.38 7.78-0.77L7.78-0.77L7.78-0.77Q4.03-1.92 1.06-4.03L1.06-4.03L3.98-9.74L3.98-9.74Q4.42-9.31 5.54-8.62L5.54-8.62L5.54-8.62Q6.67-7.92 8.21-7.22L8.21-7.22L8.21-7.22Q9.74-6.53 11.62-6.05L11.62-6.05L11.62-6.05Q13.49-5.57 15.46-5.57L15.46-5.57L15.46-5.57Q20.93-5.57 20.93-9.07L20.93-9.07L20.93-9.07Q20.93-10.18 20.30-10.94L20.30-10.94L20.30-10.94Q19.68-11.71 18.53-12.29L18.53-12.29L18.53-12.29Q17.38-12.86 15.74-13.34L15.74-13.34L15.74-13.34Q14.11-13.82 12.10-14.40L12.10-14.40L12.10-14.40Q9.65-15.07 7.85-15.86L7.85-15.86L7.85-15.86Q6.05-16.66 4.85-17.74L4.85-17.74L4.85-17.74Q3.65-18.82 3.05-20.23L3.05-20.23L3.05-20.23Q2.45-21.65 2.45-23.62L2.45-23.62L2.45-23.62Q2.45-26.21 3.41-28.22L3.41-28.22L3.41-28.22Q4.37-30.24 6.07-31.58L6.07-31.58L6.07-31.58Q7.78-32.93 10.03-33.62L10.03-33.62L10.03-33.62Q12.29-34.32 14.88-34.32L14.88-34.32L14.88-34.32Q18.48-34.32 21.50-33.19L21.50-33.19L21.50-33.19Q24.53-32.06 26.78-30.53L26.78-30.53ZM39.60-5.81L56.64-5.81L56.64 0L32.98 0L32.98-34.08L56.21-34.08L56.21-28.27L39.60-28.27L39.60-20.06L53.95-20.06L53.95-14.69L39.60-14.69L39.60-5.81ZM58.51 0L71.52-34.08L77.38-34.08L90.34 0L83.52 0L80.35-8.50L68.45-8.50L65.33 0L58.51 0ZM69.55-13.15L79.15-13.15L74.45-26.54L69.55-13.15ZM118.08 0L94.08 0L94.08-34.08L100.70-34.08L100.70-5.81L118.08-5.81L118.08 0Z" fill="#232744"/></g><g transform="translate(145.25576994158973,61)translate(59.03265931863729,69.77855711422846)rotate(0)translate(-59.03265931863729,-69.77855711422846) scale(0.2788307834524587,0.2788307834524587)" opacity="1"><defs class="defs"/><path fill="#002649" d="M321.453,20.851c-4.939-11.646-19.761-16.938-24.348-18.702c-10.232-3.528-22.583-2.471-33.169,1.412&#10;&#9;c-12.702,4.233-26.11,11.997-37.401,21.171c-2.471,2.822-6,5.646-9.527,7.763c-2.822,0.706-7.764-1.059-10.586-0.353&#10;&#9;c-7.41-0.354-13.762-0.706-20.818,0c-74.453,3.527-138.32,52.575-162.314,122.795c-13.761,44.459-10.938,92.096,10.586,133.731&#10;&#9;c17.29,42.695,17.29,91.038-2.47,132.676c-7.763,17.996-18.702,34.58-31.404,49.047c53.987,9.174,110.797,29.992,169.725,29.992&#10;&#9;c70.219,0,144.319-4.939,200.07-35.639c2.823-10.938,26.111-81.862-40.578-165.139c-62.456-78.687-38.813-122.088-19.055-182.779&#10;&#9;c8.821-27.523,28.229-53.281,17.29-83.274c16.585,7.41,28.229,20.113,44.106,28.582c-7.058-6.704-14.818-13.056-22.936-19.406&#10;&#9;c-7.763-5.293-9.88-8.116-22.583-15.878c16.938,3.881,30.346,8.82,45.166,17.643c6.352,3.529,11.997,6.352,18.348,9.88&#10;&#9;c2.117,0.354,6.353,4.587,9.527,4.94c-19.76-15.879-43.754-27.523-67.396-34.934c20.467,2.117,41.639,8.116,59.985,17.996&#10;&#9;c7.058,3.528,14.468,6.704,21.878,11.292c2.47,1.411,7.763,5.292,9.88,5.999c-16.23-14.82-35.639-24.347-56.104-30.699&#10;&#9;C358.856,25.791,350.035,21.204,321.453,20.851z" class="color c1"/><path fill="#DBEEF9" d="M303.811,304.547c-14.467-21.523-23.289-40.932-27.875-58.222c-2.117-7.058-10.232,0.706-23.289,4.588&#10;&#9;c-15.524,4.587-23.289,4.587-22.936-0.706c0-1.411,6.352-2.47,19.76-6.704c14.114-4.233,20.466-17.996,18.35-20.112&#10;&#9;c-2.471-2.117-6.704,5.999-34.229,11.292c-23.994,4.938-49.753,3.176-49.753-3.529c0-6.704,20.466-6.353,45.166-12.351&#10;&#9;c31.404-7.764,47.989-38.813,49.399-44.106c4.94-18.701,10.938-26.817,17.644-46.225c1.765-4.939,3.528-10.232,5.293-15.525&#10;&#9;c2.47-7.41,5.646-15.174,8.469-22.23c8.116-18.7,12.702-39.167,10.585-54.34c-2.116-15.173-15.524-20.818-15.524-20.818&#10;&#9;s-0.354,7.057-2.471,7.409c-2.116,0.354-9.88-9.526-16.585-11.645c-6.702-2.47-20.465,0.353-20.465,0.353&#10;&#9;c-11.291,3.882-23.289,10.938-33.169,19.055c-2.116,2.116-5.999,5.999-11.292,9.174l-1.41,0.706h-0.707&#10;&#9;c-1.059,0.353-2.47,0.353-3.881,0.353c-1.764,0-3.529-0.353-4.939-0.353c-0.706,0-1.766-0.354-2.117-0.354h-1.059h-1.06h-4.233&#10;&#9;c-2.471,0-4.94,0-7.41,0c-3.176,0-5.646,0-8.116,0.354h-0.353C117.502,43.787,62.456,87.541,38.815,157.407&#10;&#9;c-4.587,14.468-4.587,28.935-0.353,48.341c0.353,1.412,4.587-12.702,12.703-13.761c11.645-1.411-4.94,22.936,4.234,27.17&#10;&#9;c9.174,4.234,20.819-24.7,21.877-23.642c23.289,27.522-19.407,65.278-17.996,69.159c7.41,20.818,7.057,19.407,7.41,19.762&#10;&#9;c18.702,45.871,17.643,97.034-2.47,140.084c-5.999,13.762,19.407,49.398,107.975,57.869c65.278,6.352,115.384-1.412,155.61-18.35&#10;&#9;C334.51,461.571,345.096,365.239,303.811,304.547z" class="color c2"/><path fill="#002649" d="M157.375,141.528c-8.468,4.233-17.643,4.587-26.464,3.528c15.173-1.765,29.288-8.47,41.285-19.055&#10;&#9;C168.666,132.353,163.021,138,157.375,141.528z" class="color c1"/><path fill="#002649" d="M299.93,32.495c-2.823,4.94-4.939,9.527-8.116,13.762c-4.233,7.41-8.468,15.878-12.701,24.348&#10;&#9;c-4.94,12.703-8.822,27.522-14.82,39.521c5.646-26.816,14.82-52.223,28.581-76.57c-15.878,15.526-28.936,33.875-37.403,53.636&#10;&#9;c-4.938,8.82-9.174,16.937-14.112,26.816c-1.412,2.471-3.529,10.232-6.353,11.997c9.174-29.64,24.347-56.458,43.049-81.511&#10;&#9;c-18.702,16.232-34.58,36.345-46.931,58.222c-4.94,8.821-10.233,17.29-14.469,25.76c-1.059,3.528-3.526,10.231-6.351,11.996&#10;&#9;c12.703-44.106,46.931-93.859,89.979-114.325C304.869,24.026,300.635,32.495,299.93,32.495z" class="color c1"/><path fill="#002649" d="M170.431,86.482c-2.823-2.117-32.463-0.705-42.696,17.996c-5.292,9.526-7.057,26.465-0.353,31.051&#10;&#9;c6.704,4.588,19.76-3.175,26.817-10.232C169.372,110.83,173.254,88.599,170.431,86.482z" class="color c1"/><path fill="#FFFFFF" d="M144.319,102.712c-1.411-1.411-9.88-1.411-11.997,4.234c-2.47,7.058,3.176,10.938,8.116,7.763&#10;&#9;C145.378,111.887,145.731,104.125,144.319,102.712z" class="color c3"/><path fill="#A8D1EC" d="M303.811,304.547c-14.467-21.523-23.289-40.932-27.875-58.222c-2.117-7.058-10.232,0.706-23.289,4.588&#10;&#9;c-15.524,4.587-23.289,4.587-22.936-0.706c0-1.411,6.352-2.47,19.76-6.704c14.114-4.233,20.466-17.996,18.35-20.112&#10;&#9;c-2.471-2.117-6.704,5.999-34.229,11.292c-23.994,4.938-49.753,3.176-49.753-3.529c0-6.704,20.466-6.353,45.166-12.351&#10;&#9;c31.404-7.764,47.989-38.813,49.399-44.106c4.94-18.701,10.938-26.817,17.644-46.225c1.765-4.939,3.528-10.232,5.293-15.525&#10;&#9;c2.47-7.41,5.646-15.174,8.469-22.23c0.706-1.764,1.411-3.527,2.117-4.938c1.765-4.234,3.175-8.469,4.233-12.703&#10;&#9;c-2.117,1.411-5.292,4.587-10.585,12.703c-11.997,19.054-65.632,99.151-105.857,111.149c-45.519,13.408-72.689,45.52-37.403,69.513&#10;&#9;c35.639,23.643,82.921,27.17,67.75,82.922c-10.938,39.873-19.408,117.502-51.519,113.27c-32.11-4.234-16.584-43.402-37.403-32.111&#10;&#9;c-9.88,5.293-19.407,23.289-26.111,40.578c1.764,0.707,3.881,1.059,5.646,1.766l0,0c1.764,0.705,3.881,1.059,5.999,1.764h0.353&#10;&#9;c1.764,0.354,3.881,1.061,5.999,1.412c0.353,0,0.353,0,0.706,0c1.765,0.354,3.882,0.705,5.999,1.41c0.353,0,0.706,0,1.059,0.355&#10;&#9;c1.765,0.352,3.882,0.705,5.646,1.059c0.353,0,1.059,0.354,1.412,0.354c1.764,0.352,3.881,0.705,5.646,1.059&#10;&#9;c0.706,0,1.412,0.352,2.117,0.352c1.764,0.355,3.881,0.707,5.999,0.707c0.706,0,1.412,0.354,2.117,0.354&#10;&#9;c2.823,0.354,5.293,0.705,8.116,1.059c3.881,0.354,7.764,0.705,11.645,1.059c1.412,0,2.471,0,3.882,0.354&#10;&#9;c2.47,0,5.293,0.354,7.763,0.354c1.412,0,2.823,0,4.587,0c2.117,0,4.587,0.354,6.704,0.354c1.412,0,3.176,0,4.587,0&#10;&#9;c2.118,0,4.234,0,5.999,0c1.411,0,3.176,0,4.587,0c2.117,0,3.882,0,5.999,0c1.411,0,3.176,0,4.588-0.354&#10;&#9;c1.764,0,3.881,0,5.646-0.354c1.411,0,3.176-0.354,4.588-0.354c1.764,0,3.526-0.354,5.293-0.354c1.41,0,2.821-0.354,4.233-0.354&#10;&#9;c1.765-0.354,3.527-0.354,5.293-0.705c1.41,0,2.822-0.354,4.233-0.705c1.766-0.354,3.528-0.354,4.94-0.707&#10;&#9;c1.411-0.354,2.821-0.354,4.233-0.705c1.765-0.354,3.177-0.705,4.939-0.705c1.412-0.354,2.822-0.354,3.881-0.707&#10;&#9;c1.766-0.352,3.176-0.705,4.588-1.059s2.47-0.705,3.881-0.705c1.412-0.354,3.177-0.705,4.588-1.059&#10;&#9;c1.06-0.354,2.471-0.705,3.528-1.059c1.766-0.354,3.176-1.059,4.587-1.412c1.06-0.354,2.117-0.705,3.529-1.059&#10;&#9;c1.764-0.354,3.176-1.059,4.938-1.766c1.06-0.352,2.117-0.705,2.823-1.059c2.47-0.705,4.587-1.764,7.059-2.469&#10;&#9;c0.352,0,0.352,0,0.705-0.355l0,0c2.471-1.059,4.938-2.117,7.409-3.176C334.51,461.571,345.096,365.239,303.811,304.547z" class="color c4"/></g></svg>